<?xml version="1.0" encoding="UTF-8" standalone="no"?>
<!-- Created with Inkscape (http://www.inkscape.org/) -->

<svg
   xmlns:dc="http://purl.org/dc/elements/1.1/"
   xmlns:cc="http://creativecommons.org/ns#"
   xmlns:rdf="http://www.w3.org/1999/02/22-rdf-syntax-ns#"
   xmlns:svg="http://www.w3.org/2000/svg"
   xmlns="http://www.w3.org/2000/svg"
   xmlns:sodipodi="http://sodipodi.sourceforge.net/DTD/sodipodi-0.dtd"
   xmlns:inkscape="http://www.inkscape.org/namespaces/inkscape"
   width="130.8394mm"
   height="54.693024mm"
   viewBox="0 0 130.8394 54.693024"
   version="1.1"
   id="svg8"
   inkscape:version="0.92.3 (2405546, 2018-03-11)"
   sodipodi:docname="method.svg">
  <sodipodi:namedview
     id="base"
     pagecolor="#ffffff"
     bordercolor="#666666"
     borderopacity="1.0"
     inkscape:pageopacity="0.0"
     inkscape:pageshadow="2"
     inkscape:zoom="1.4"
     inkscape:cx="119.59349"
     inkscape:cy="189.83369"
     inkscape:document-units="mm"
     inkscape:current-layer="layer1"
     showgrid="false"
     inkscape:window-width="1920"
     inkscape:window-height="1018"
     inkscape:window-x="-8"
     inkscape:window-y="-8"
     inkscape:window-maximized="1"
     fit-margin-top="0"
     fit-margin-left="0"
     fit-margin-right="0"
     fit-margin-bottom="0" />
  <defs
     id="defs2">
    <inkscape:path-effect
       only_selected="false"
       apply_with_weight="true"
       apply_no_weight="true"
       helper_size="0"
       steps="2"
       weight="33.333333"
       is_visible="true"
       id="path-effect863"
       effect="bspline" />
    <inkscape:path-effect
       only_selected="false"
       apply_with_weight="true"
       apply_no_weight="true"
       helper_size="0"
       steps="2"
       weight="33.333333"
       is_visible="true"
       id="path-effect844"
       effect="bspline" />
    <inkscape:path-effect
       only_selected="false"
       apply_with_weight="true"
       apply_no_weight="true"
       helper_size="0"
       steps="2"
       weight="33.333333"
       is_visible="true"
       id="path-effect840"
       effect="bspline" />
    <inkscape:path-effect
       only_selected="false"
       apply_with_weight="true"
       apply_no_weight="true"
       helper_size="0"
       steps="2"
       weight="33.333333"
       is_visible="true"
       id="path-effect863-9"
       effect="bspline" />
    <inkscape:path-effect
       only_selected="false"
       apply_with_weight="true"
       apply_no_weight="true"
       helper_size="0"
       steps="2"
       weight="33.333333"
       is_visible="true"
       id="path-effect863-9-8"
       effect="bspline" />
    <inkscape:path-effect
       only_selected="false"
       apply_with_weight="true"
       apply_no_weight="true"
       helper_size="0"
       steps="2"
       weight="33.333333"
       is_visible="true"
       id="path-effect863-3"
       effect="bspline" />
    <meshgradient
       y="77.621429"
       x="37.818638"
       gradientUnits="userSpaceOnUse"
       id="meshgradient2418"
       inkscape:collect="always">
      <meshrow
         id="meshrow2420">
        <meshpatch
           id="meshpatch2422">
          <stop
             id="stop2424"
             style="stop-color:#ffffff;stop-opacity:1"
             path="c 10.2453,0  20.4907,0  30.736,0" />
          <stop
             id="stop2426"
             style="stop-color:#800080;stop-opacity:1"
             path="c 0,1.75965  0,3.51931  0,5.27896" />
          <stop
             id="stop2428"
             style="stop-color:#ffffff;stop-opacity:1"
             path="c -10.2453,0  -20.4907,0  -30.736,0" />
          <stop
             id="stop2430"
             style="stop-color:#800080;stop-opacity:1"
             path="c 0,-1.75965  0,-3.51931  0,-5.27896" />
        </meshpatch>
      </meshrow>
    </meshgradient>
    <meshgradient
       y="95.271393"
       x="68.67923"
       gradientUnits="userSpaceOnUse"
       id="meshgradient2432"
       inkscape:collect="always">
      <meshrow
         id="meshrow2434">
        <meshpatch
           id="meshpatch2436">
          <stop
             id="stop2438"
             style="stop-color:#ffffff;stop-opacity:1"
             path="c 10.2453,0  20.4907,0  30.736,0" />
          <stop
             id="stop2440"
             style="stop-color:#800080;stop-opacity:1"
             path="c 0,1.75965  0,3.51931  0,5.27896" />
          <stop
             id="stop2442"
             style="stop-color:#ffffff;stop-opacity:1"
             path="c -10.2453,0  -20.4907,0  -30.736,0" />
          <stop
             id="stop2444"
             style="stop-color:#800080;stop-opacity:1"
             path="c 0,-1.75965  0,-3.51931  0,-5.27896" />
        </meshpatch>
      </meshrow>
    </meshgradient>
    <meshgradient
       gradientTransform="translate(0.29984569)"
       y="127.88859"
       x="61.217632"
       gradientUnits="userSpaceOnUse"
       id="meshgradient2563"
       inkscape:collect="always">
      <meshrow
         id="meshrow2565">
        <meshpatch
           id="meshpatch2567">
          <stop
             id="stop2569"
             style="stop-color:#ffffff;stop-opacity:1"
             path="c 2.57991,0  5.15983,0  7.73974,0" />
          <stop
             id="stop2571"
             style="stop-color:#800080;stop-opacity:1"
             path="c 0,1.21279  0,2.42557  0,3.63836" />
          <stop
             id="stop2573"
             style="stop-color:#ffffff;stop-opacity:1"
             path="c -2.57991,0  -5.15983,0  -7.73974,0" />
          <stop
             id="stop2575"
             style="stop-color:#800080;stop-opacity:1"
             path="c 0,-1.21279  0,-2.42557  0,-3.63836" />
        </meshpatch>
      </meshrow>
    </meshgradient>
  </defs>
  <metadata
     id="metadata5">
    <rdf:RDF>
      <cc:Work
         rdf:about="">
        <dc:format>image/svg+xml</dc:format>
        <dc:type
           rdf:resource="http://purl.org/dc/dcmitype/StillImage" />
        <dc:title></dc:title>
      </cc:Work>
    </rdf:RDF>
  </metadata>
  <g
     id="layer1"
     inkscape:groupmode="layer"
     inkscape:label="Layer 1"
     transform="translate(-16.581454,-76.990396)">
    <rect
       y="77.621429"
       x="37.818638"
       height="5.2789626"
       width="30.735996"
       id="rect815-6"
       style="fill:url(#meshgradient2418);fill-opacity:1;stroke:#000000;stroke-width:0.75121725;stroke-linecap:round;stroke-linejoin:miter;stroke-miterlimit:4;stroke-dasharray:none;stroke-dashoffset:0;stroke-opacity:1;paint-order:normal" />
    <rect
       y="77.621048"
       x="68.287361"
       height="5.2789626"
       width="30.735998"
       id="rect815-6-3"
       style="fill:none;fill-opacity:1;stroke:#000000;stroke-width:0.75121725;stroke-linecap:round;stroke-linejoin:miter;stroke-miterlimit:4;stroke-dasharray:none;stroke-dashoffset:0;stroke-opacity:1;paint-order:normal" />
    <path
       sodipodi:nodetypes="cc"
       inkscape:original-d="m 16.581455,80.122189 c 6.860182,-3.3e-4 13.720101,-3.96e-4 20.579752,-1.97e-4"
       inkscape:path-effect="#path-effect863"
       inkscape:connector-curvature="0"
       id="path861"
       d="m 16.581455,80.122189 c 6.860182,-6.6e-5 13.720101,-1.31e-4 20.579752,-1.97e-4"
       style="fill:none;stroke:#000000;stroke-width:0.26458332px;stroke-linecap:butt;stroke-linejoin:miter;stroke-opacity:1" />
    <path
       sodipodi:nodetypes="cc"
       inkscape:original-d="m 100.13539,80.126993 c 6.86018,-3.3e-4 13.7201,-3.96e-4 20.57975,-1.97e-4"
       inkscape:path-effect="#path-effect863-9"
       inkscape:connector-curvature="0"
       id="path861-7"
       d="m 100.13539,80.126993 c 6.86018,-6.6e-5 13.7201,-1.31e-4 20.57975,-1.97e-4"
       style="fill:none;stroke:#000000;stroke-width:0.26458332px;stroke-linecap:butt;stroke-linejoin:miter;stroke-opacity:1" />
    <rect
       y="95.271774"
       x="38.210503"
       height="5.2789626"
       width="30.735998"
       id="rect815-6-2"
       style="fill:none;fill-opacity:1;stroke:#000000;stroke-width:0.75121725;stroke-linecap:round;stroke-linejoin:miter;stroke-miterlimit:4;stroke-dasharray:none;stroke-dashoffset:0;stroke-opacity:1;paint-order:normal" />
    <rect
       y="95.271393"
       x="68.67923"
       height="5.2789626"
       width="30.736"
       id="rect815-6-3-1"
       style="fill:url(#meshgradient2432);fill-opacity:1;stroke:#000000;stroke-width:0.75121725;stroke-linecap:round;stroke-linejoin:miter;stroke-miterlimit:4;stroke-dasharray:none;stroke-dashoffset:0;stroke-opacity:1;paint-order:normal" />
    <path
       sodipodi:nodetypes="cc"
       inkscape:original-d="m 16.973307,97.772535 c 6.860186,-3.3e-4 13.720107,-4e-4 20.579758,-2e-4"
       inkscape:path-effect="#path-effect863-3"
       inkscape:connector-curvature="0"
       id="path861-0"
       d="m 16.973307,97.772535 c 6.860186,-6.7e-5 13.720107,-1.33e-4 20.579758,-2e-4"
       style="fill:none;stroke:#000000;stroke-width:0.26458332px;stroke-linecap:butt;stroke-linejoin:miter;stroke-opacity:1" />
    <path
       sodipodi:nodetypes="cc"
       inkscape:original-d="m 100.52725,97.777335 c 6.86022,-3.2e-4 13.72018,-4e-4 20.57985,-2e-4"
       inkscape:path-effect="#path-effect863-9-8"
       inkscape:connector-curvature="0"
       id="path861-7-6"
       d="m 100.52725,97.777335 c 6.86022,-6.7e-5 13.72018,-1.33e-4 20.57985,-2e-4"
       style="fill:none;stroke:#000000;stroke-width:0.26458332px;stroke-linecap:butt;stroke-linejoin:miter;stroke-opacity:1" />
    <text
       id="text915-1"
       y="78.355019"
       x="22.896179"
       style="font-style:normal;font-weight:normal;font-size:2.11666656px;line-height:1.25;font-family:sans-serif;letter-spacing:0px;word-spacing:0px;fill:#000000;fill-opacity:1;stroke:none;stroke-width:0.26458332"
       xml:space="preserve"><tspan
         style="font-size:7.76111126px;stroke-width:0.26458332"
         y="78.355019"
         x="22.896179"
         id="tspan913-8"
         sodipodi:role="line">...</tspan></text>
    <text
       id="text915-4"
       y="95.55294"
       x="22.896181"
       style="font-style:normal;font-weight:normal;font-size:2.11666656px;line-height:1.25;font-family:sans-serif;letter-spacing:0px;word-spacing:0px;fill:#000000;fill-opacity:1;stroke:none;stroke-width:0.26458332"
       xml:space="preserve"><tspan
         style="font-size:7.76111126px;stroke-width:0.26458332"
         y="95.55294"
         x="22.896181"
         id="tspan913-6"
         sodipodi:role="line">...</tspan></text>
    <text
       id="text915-44"
       y="77.977043"
       x="103.32951"
       style="font-style:normal;font-weight:normal;font-size:2.11666656px;line-height:1.25;font-family:sans-serif;letter-spacing:0px;word-spacing:0px;fill:#000000;fill-opacity:1;stroke:none;stroke-width:0.26458332"
       xml:space="preserve"><tspan
         style="font-size:7.76111126px;stroke-width:0.26458332"
         y="77.977043"
         x="103.32951"
         id="tspan913-2"
         sodipodi:role="line">...</tspan></text>
    <text
       id="text915-2"
       y="95.174965"
       x="103.40511"
       style="font-style:normal;font-weight:normal;font-size:2.11666656px;line-height:1.25;font-family:sans-serif;letter-spacing:0px;word-spacing:0px;fill:#000000;fill-opacity:1;stroke:none;stroke-width:0.26458332"
       xml:space="preserve"><tspan
         style="font-size:7.76111126px;stroke-width:0.26458332"
         y="95.174965"
         x="103.40511"
         id="tspan913-5"
         sodipodi:role="line">...</tspan></text>
    <text
       transform="scale(0.98055356,1.0198321)"
       id="text2462-0"
       y="80.198059"
       x="129.12022"
       style="font-style:normal;font-weight:normal;font-size:1.54812622px;line-height:1.25;font-family:sans-serif;letter-spacing:0px;word-spacing:0px;fill:#000000;fill-opacity:1;stroke:none;stroke-width:0.19351578"
       xml:space="preserve"><tspan
         style="font-size:6.19250488px;stroke-width:0.19351578"
         y="80.198059"
         x="129.12022"
         id="tspan2460-0"
         sodipodi:role="line">AdjList</tspan></text>
    <text
       transform="scale(0.98055356,1.0198321)"
       id="text2462-0-8"
       y="97.246849"
       x="129.4297"
       style="font-style:normal;font-weight:normal;font-size:1.54812622px;line-height:1.25;font-family:sans-serif;letter-spacing:0px;word-spacing:0px;fill:#000000;fill-opacity:1;stroke:none;stroke-width:0.19351578"
       xml:space="preserve"><tspan
         style="font-size:6.19250488px;stroke-width:0.19351578"
         y="97.246849"
         x="129.4297"
         id="tspan2460-0-5"
         sodipodi:role="line">AdjList</tspan></text>
    <rect
       y="119.70538"
       x="61.520008"
       height="3.6383548"
       width="7.7397375"
       id="rect815-6-2-0"
       style="fill:none;fill-opacity:1;stroke:#000000;stroke-width:0.31295595;stroke-linecap:round;stroke-linejoin:miter;stroke-miterlimit:4;stroke-dasharray:none;stroke-dashoffset:0;stroke-opacity:1;paint-order:normal" />
    <text
       transform="scale(0.89174646,1.121395)"
       id="text2517"
       y="109.15488"
       x="81.785629"
       style="font-style:normal;font-weight:normal;font-size:2.58905101px;line-height:1.25;font-family:sans-serif;letter-spacing:0px;word-spacing:0px;fill:#000000;fill-opacity:1;stroke:none;stroke-width:0.32363138"
       xml:space="preserve"><tspan
         style="stroke-width:0.32363138"
         y="109.15488"
         x="81.785629"
         id="tspan2515"
         sodipodi:role="line">maintained in host memory</tspan></text>
    <rect
       y="127.88859"
       x="61.517479"
       height="3.638355"
       width="7.7397375"
       id="rect815-6-2-0-4"
       style="fill:url(#meshgradient2563);fill-opacity:1;stroke:#000000;stroke-width:0.31295598;stroke-linecap:round;stroke-linejoin:miter;stroke-miterlimit:4;stroke-dasharray:none;stroke-dashoffset:0;stroke-opacity:1;paint-order:normal" />
    <text
       transform="scale(0.89174645,1.121395)"
       id="text2517-2"
       y="116.08618"
       x="81.332634"
       style="font-style:normal;font-weight:normal;font-size:2.58905101px;line-height:1.25;font-family:sans-serif;letter-spacing:0px;word-spacing:0px;fill:#000000;fill-opacity:1;stroke:none;stroke-width:0.32363138"
       xml:space="preserve"><tspan
         style="stroke-width:0.32363138"
         y="116.08618"
         x="81.332634"
         id="tspan2515-0"
         sodipodi:role="line">transfered to device memory</tspan></text>
    <g
       transform="matrix(0.90418856,0,0,0.5673608,-25.346395,32.759042)"
       id="g2833">
      <g
         style="font-style:normal;font-variant:normal;font-weight:normal;font-stretch:normal;letter-spacing:normal;word-spacing:normal;text-anchor:start;fill:none;fill-opacity:1;fill-rule:evenodd;stroke:#000000;stroke-linecap:butt;stroke-linejoin:miter;stroke-miterlimit:10.43299961;stroke-dasharray:none;stroke-dashoffset:0;stroke-opacity:1"
         id="g2831"
         transform="matrix(0.3,0,0,-0.3,-52.5,222.75)"
         xml:space="preserve"
         stroke-miterlimit="10.433"
         font-style="normal"
         font-variant="normal"
         font-weight="normal"
         font-stretch="normal"
         font-size-adjust="none"
         letter-spacing="normal"
         word-spacing="normal"><path
           style="fill:#000000;stroke-width:0"
           inkscape:connector-curvature="0"
           d="m 469.68,437.34 -0.01,0.09 v 0.09 l -0.01,0.1 -0.02,0.08 -0.01,0.09 -0.03,0.09 -0.02,0.08 -0.03,0.08 -0.03,0.08 -0.04,0.08 -0.04,0.08 -0.05,0.07 -0.04,0.07 -0.06,0.07 -0.05,0.06 -0.06,0.06 -0.06,0.06 -0.06,0.06 -0.07,0.05 -0.07,0.05 -0.08,0.05 -0.07,0.04 -0.09,0.04 -0.08,0.04 -0.08,0.03 -0.09,0.03 -0.1,0.02 -0.09,0.02 -0.1,0.02 -0.1,0.01 h -0.1 l -0.11,0.01 c -1.36,0 -2.7,-1.3 -2.7,-2.64 0,-0.96 0.7,-1.8 1.91,-1.8 1.14,0 2.64,1.14 2.64,2.64 z"
           id="path2827" /><path
           style="fill:#000000;stroke-width:0"
           inkscape:connector-curvature="0"
           d="m 465.88,418.61 0.05,0.13 0.05,0.12 0.05,0.12 0.05,0.11 0.04,0.1 0.04,0.1 0.03,0.09 0.04,0.09 0.03,0.09 0.04,0.08 0.03,0.08 0.02,0.08 0.03,0.07 0.03,0.07 0.05,0.15 0.05,0.14 0.05,0.14 0.03,0.07 0.03,0.08 0.03,0.08 0.02,0.08 0.04,0.08 0.03,0.09 0.03,0.1 0.04,0.09 0.03,0.11 0.04,0.11 0.05,0.11 0.04,0.13 c 0.41,1 0.66,1.68 0.66,2.64 0,2.23 -1.59,4.07 -4.09,4.07 -4.68,0 -6.58,-7.21 -6.58,-7.67 0,-0.5 0.5,-0.5 0.61,-0.5 0.5,0 0.54,0.11 0.79,0.91 1.35,4.69 3.33,6.17 5.03,6.17 0.4,0 1.25,0 1.25,-1.59 0,-1.05 -0.35,-2.1 -0.56,-2.6 -0.39,-1.29 -2.64,-7.06 -3.44,-9.22 -0.48,-1.28 -1.14,-2.93 -1.14,-3.98 0,-2.33 1.69,-4.08 4.1,-4.08 4.67,0 6.51,7.22 6.51,7.67 0,0.5 -0.43,0.5 -0.59,0.5 -0.5,0 -0.5,-0.15 -0.75,-0.9 -0.89,-3.13 -2.53,-6.17 -5.08,-6.17 -0.84,0 -1.2,0.5 -1.2,1.64 0,1.25 0.31,1.95 1.45,4.98 z"
           id="path2829" /></g>    </g>
    <g
       id="g3003"
       transform="matrix(0.62979807,0,0,0.41616283,30.894647,65.040099)">
      <g
         word-spacing="normal"
         letter-spacing="normal"
         font-size-adjust="none"
         font-stretch="normal"
         font-weight="normal"
         font-variant="normal"
         font-style="normal"
         stroke-miterlimit="10.433"
         xml:space="preserve"
         transform="matrix(0.3,0,0,-0.3,-52.5,222.75)"
         id="g3001"
         style="font-style:normal;font-variant:normal;font-weight:normal;font-stretch:normal;letter-spacing:normal;word-spacing:normal;text-anchor:start;fill:none;fill-opacity:1;fill-rule:evenodd;stroke:#000000;stroke-linecap:butt;stroke-linejoin:miter;stroke-miterlimit:10.43299961;stroke-dasharray:none;stroke-dashoffset:0;stroke-opacity:1"><path
           id="path2997"
           d="m 475.3,437.34 v 0.09 l -0.01,0.08 -0.01,0.09 -0.01,0.09 -0.02,0.08 -0.02,0.08 -0.03,0.09 -0.03,0.08 -0.03,0.07 -0.04,0.08 -0.04,0.08 -0.04,0.07 -0.05,0.07 -0.05,0.07 -0.06,0.07 -0.06,0.06 -0.06,0.06 -0.07,0.06 -0.07,0.05 -0.07,0.06 -0.08,0.04 -0.07,0.05 -0.09,0.04 -0.08,0.04 -0.09,0.03 -0.09,0.03 -0.1,0.03 -0.1,0.02 -0.1,0.01 -0.1,0.02 h -0.11 l -0.11,0.01 c -1.16,0 -2.64,-1.16 -2.64,-2.64 0,-1 0.69,-1.8 1.84,-1.8 1.35,0 2.69,1.3 2.69,2.64 z"
           inkscape:connector-curvature="0"
           style="fill:#000000;stroke-width:0" /><path
           id="path2999"
           d="m 465.29,403.71 -0.1,-0.35 -0.1,-0.35 -0.11,-0.34 -0.12,-0.33 -0.12,-0.33 -0.14,-0.32 -0.14,-0.31 -0.14,-0.3 -0.16,-0.3 -0.16,-0.29 -0.16,-0.28 -0.18,-0.26 -0.18,-0.26 -0.18,-0.25 -0.2,-0.24 -0.19,-0.23 -0.2,-0.22 -0.21,-0.2 -0.21,-0.19 -0.22,-0.19 -0.22,-0.16 -0.23,-0.16 -0.23,-0.14 -0.23,-0.13 -0.24,-0.12 -0.24,-0.1 -0.25,-0.08 -0.25,-0.08 -0.25,-0.05 -0.25,-0.04 -0.26,-0.03 -0.26,-0.01 c -0.3,0 -1.05,0 -1.95,0.46 1.5,0.36 2.25,1.64 2.25,2.64 0,0.79 -0.55,1.75 -1.89,1.75 -1.25,0 -2.69,-1.05 -2.69,-2.85 0,-2 1.98,-3.09 4.37,-3.09 3.49,0 8.13,2.64 9.38,7.58 l 4.58,18.23 c 0.25,1 0.25,1.69 0.25,1.85 0,2.84 -2.1,4.57 -4.58,4.57 -5.09,0 -7.92,-7.21 -7.92,-7.67 0,-0.5 0.48,-0.5 0.59,-0.5 0.45,0 0.5,0.07 0.89,1 1.25,3.05 3.55,6.08 6.28,6.08 0.71,0 1.6,-0.2 1.6,-2.28 0,-1.16 -0.16,-1.7 -0.35,-2.55 z"
           inkscape:connector-curvature="0"
           style="fill:#000000;stroke-width:0" /></g>    </g>
  </g>
</svg>
